# xmcd
#
# Track frame offsets:
#	182
#	13570
#	26437
#	40987
#	55520
#	70980
#	83277
#	98282
#	112007
#	126640
#	141617
#
# Disc length: 2046 seconds
# Revision: 1
# Processed by: cddbd v1.5.2PL0 Copyright (c) Steve Scherf et al.
# Submitted via: dBpowerAMP V12.0
#
DISCID=8b07fc0b
DTITLE=Bobby Vinton - Collectors Series: Vol. IV
DYEAR=1980
DGENRE=Country
TTITLE0=Not Enough Roses in Texas
TTITLE1=I Go to Pieces
TTITLE2=Caught Between the Blues
TTITLE3=Bobbie Lee
TTITLE4=Ghost of Another Man
TTITLE5=Mention a Mansion
TTITLE6=Last Rose
TTITLE7=Only Love Can Break a Heart
TTITLE8=Pillow Next to Mine
TTITLE9=Dick and Jane
TTITLE10=Love Makes Everything Better
EXTD=
EXTT0=
EXTT1=
EXTT2=
EXTT3=
EXTT4=
EXTT5=
EXTT6=
EXTT7=
EXTT8=
EXTT9=
EXTT10=
PLAYORDER=
